<svg width="39" height="39" viewBox="0 0 39 39" fill="none" xmlns="http://www.w3.org/2000/svg">
<path d="M20.1262 30.0303L19.9679 30.1886L19.7937 30.0303C12.2729 23.2061 7.30119 18.6936 7.30119 14.1178C7.30119 10.9511 9.67619 8.57609 12.8429 8.57609C15.2812 8.57609 17.6562 10.1594 18.4954 12.3128H21.4404C22.2795 10.1594 24.6545 8.57609 27.0929 8.57609C30.2595 8.57609 32.6345 10.9511 32.6345 14.1178C32.6345 18.6936 27.6629 23.2061 20.1262 30.0303ZM27.0929 5.40942C24.3379 5.40942 21.6937 6.69192 19.9679 8.70276C18.242 6.69192 15.5979 5.40942 12.8429 5.40942C7.96619 5.40942 4.13452 9.22526 4.13452 14.1178C4.13452 20.0869 9.51785 24.9794 17.672 32.3736L19.9679 34.4636L22.2637 32.3736C30.4179 24.9794 35.8012 20.0869 35.8012 14.1178C35.8012 9.22526 31.9695 5.40942 27.0929 5.40942Z" fill="#E4DEDE"/>
</svg>
