<svg width="51" height="51" viewBox="0 0 51 51" fill="none" xmlns="http://www.w3.org/2000/svg">
<path d="M42.6779 28.7199C42.153 28.5563 41.5847 28.6068 41.0968 28.8605C40.609 29.1142 40.2413 29.5504 40.0737 30.0741C39.0895 33.0834 37.1707 35.7002 34.5966 37.5436C32.0224 39.3871 28.9272 40.3612 25.7612 40.3241C21.8453 40.3686 18.0715 38.8583 15.2674 36.1245C12.4633 33.3908 10.8578 29.6565 10.8029 25.7407C10.8578 21.8249 12.4633 18.0907 15.2674 15.3569C18.0715 12.6231 21.8453 11.1129 25.7612 11.1574C29.2978 11.1488 32.7256 12.3799 35.4487 14.6366L30.9279 13.8866C30.657 13.842 30.3799 13.8514 30.1126 13.9143C29.8453 13.9771 29.5931 14.0922 29.3704 14.2529C29.1478 14.4136 28.9591 14.6168 28.8152 14.8506C28.6713 15.0845 28.5751 15.3445 28.5321 15.6157C28.4875 15.8867 28.4969 16.1637 28.5598 16.431C28.6227 16.6983 28.7378 16.9506 28.8985 17.1732C29.0591 17.3959 29.2623 17.5845 29.4962 17.7284C29.73 17.8723 29.99 17.9685 30.2612 18.0116L39.0946 19.4699H39.4487C39.6903 19.4696 39.93 19.4273 40.1571 19.3449C40.2334 19.3159 40.3039 19.2736 40.3654 19.2199C40.5148 19.1643 40.6552 19.0871 40.7821 18.9907L40.9696 18.7616C40.9696 18.6574 41.1571 18.5741 41.2404 18.4491C41.3237 18.3241 41.2404 18.2407 41.3446 18.1574C41.4021 18.0361 41.4509 17.9107 41.4904 17.7824L43.0529 9.44905C43.1049 9.17547 43.1025 8.89432 43.0458 8.62167C42.9891 8.34901 42.8793 8.09019 42.7226 7.85998C42.5659 7.62977 42.3654 7.43267 42.1325 7.27995C41.8997 7.12723 41.639 7.02187 41.3654 6.96989C41.0918 6.91791 40.8107 6.92032 40.538 6.97699C40.2654 7.03367 40.0065 7.14349 39.7763 7.30019C39.3114 7.61665 38.9912 8.10485 38.8862 8.65739L38.3237 11.6782C34.8362 8.65581 30.3762 6.99162 25.7612 6.99072C20.7403 6.94628 15.9067 8.8955 12.3212 12.4107C8.73576 15.9259 6.69121 20.7199 6.63623 25.7407C6.69121 30.7616 8.73576 35.5556 12.3212 39.0708C15.9067 42.5859 20.7403 44.5352 25.7612 44.4907C29.8303 44.5532 33.8119 43.3076 37.1198 40.9373C40.4278 38.567 42.8873 35.1972 44.1362 31.3241C44.2153 31.0573 44.2401 30.7775 44.2092 30.501C44.1783 30.2245 44.0924 29.957 43.9564 29.7143C43.8205 29.4716 43.6374 29.2586 43.4178 29.0878C43.1982 28.917 42.9466 28.7919 42.6779 28.7199Z" fill="black"/>
</svg>
